<?xml version="1.0" standalone="no"?>
<!DOCTYPE svg PUBLIC "-//W3C//DTD SVG 20010904//EN"
 "http://www.w3.org/TR/2001/REC-SVG-20010904/DTD/svg10.dtd">
<svg version="1.0" xmlns="http://www.w3.org/2000/svg"
 width="821.000000pt" height="821.000000pt" viewBox="0 0 821.000000 821.000000"
 preserveAspectRatio="xMidYMid meet">
<metadata>
Created by potrace 1.14, written by Peter Selinger 2001-2017
</metadata>
<g transform="translate(0.000000,821.000000) scale(0.100000,-0.100000)"
fill="#000000" stroke="none">
<path d="M4567 7515 c-80 -36 -145 -113 -162 -191 -9 -42 -7 -95 7 -154 4 -21
59 -102 80 -120 18 -15 16 -60 -3 -60 -5 0 -9 -5 -9 -11 0 -10 -66 -128 -100
-179 -6 -8 -17 -28 -26 -45 -8 -16 -23 -43 -34 -60 -10 -16 -25 -41 -33 -55
-54 -98 -72 -128 -87 -150 -9 -14 -37 -60 -61 -103 -24 -44 -58 -103 -74 -133
-17 -30 -36 -59 -43 -66 -7 -7 -12 -15 -12 -19 0 -6 -91 -168 -140 -249 -22
-36 -76 -128 -95 -161 -131 -229 -210 -365 -214 -369 -3 -3 -18 -27 -33 -55
-29 -53 -29 -53 -103 -38 -82 17 -179 -13 -240 -74 l-34 -34 -78 42 c-43 23
-82 45 -88 49 -5 4 -31 19 -56 33 -84 46 -94 52 -101 62 -4 6 -8 6 -8 1 0 -4
-12 0 -27 10 -34 22 -174 101 -401 227 -51 28 -53 30 -46 61 26 107 2 196 -71
271 -134 138 -359 103 -448 -70 -20 -40 -40 -175 -25 -175 4 0 8 -10 8 -22 0
-13 13 -45 30 -73 l29 -49 -47 -51 c-26 -28 -76 -83 -112 -124 -36 -41 -83
-93 -105 -117 -33 -35 -98 -107 -175 -194 -23 -26 -135 -151 -170 -190 -18
-19 -55 -61 -83 -94 -29 -32 -65 -73 -82 -90 -16 -18 -56 -62 -88 -98 l-59
-66 -53 24 c-182 84 -388 -44 -395 -246 -4 -107 57 -208 156 -256 189 -92 408
50 399 259 -3 61 -17 105 -46 148 -18 26 -18 26 19 70 20 24 44 51 52 60 31
33 159 175 180 199 12 14 38 43 58 65 21 22 69 76 107 120 39 44 77 86 86 95
9 8 51 55 95 104 43 50 86 97 94 106 8 9 41 46 74 83 32 36 77 87 100 112 l42
46 52 -24 c97 -45 225 -21 306 58 l37 35 47 -27 c26 -15 65 -36 87 -47 22 -10
47 -25 55 -31 8 -7 42 -27 75 -45 33 -17 87 -47 120 -66 33 -19 71 -40 85 -47
14 -6 27 -14 30 -17 3 -3 19 -12 35 -21 88 -48 268 -149 272 -153 1 -1 -3 -24
-10 -51 -41 -160 83 -330 246 -339 175 -10 313 125 302 295 -5 68 -26 119 -71
169 -39 43 -40 34 17 128 17 30 443 764 580 1001 27 46 49 86 49 88 0 2 5 9
10 16 17 20 120 198 120 208 0 5 5 9 11 9 5 0 8 4 4 9 -3 5 -1 12 3 15 5 3 49
75 98 161 84 147 90 155 114 149 14 -4 52 -9 85 -10 63 -3 105 10 168 52 31
20 40 22 51 12 7 -7 27 -24 45 -38 18 -13 43 -33 55 -45 12 -11 39 -33 60 -50
22 -16 44 -35 50 -40 6 -6 49 -41 96 -79 47 -39 87 -72 90 -75 3 -4 39 -33 80
-66 41 -32 77 -62 80 -65 3 -3 41 -35 85 -70 44 -36 89 -72 100 -82 11 -9 65
-53 120 -99 55 -45 102 -85 105 -88 3 -3 30 -25 61 -49 36 -27 62 -40 73 -36
29 11 17 41 -31 80 -27 21 -59 49 -73 60 -28 24 -282 233 -435 357 -55 45
-105 86 -111 92 -6 5 -30 26 -54 45 -24 19 -60 49 -80 65 -42 36 -55 47 -72
60 -22 17 -192 157 -206 170 -11 10 -10 23 7 71 78 232 -154 449 -372 349z"/>
<path d="M4520 5782 c-73 -4 -85 -9 -107 -49 l-22 -38 1 -2495 0 -2495 136 -3
c75 -2 138 -5 141 -7 2 -3 -223 -5 -501 -4 l-505 0 1 1504 c1 828 -2 1518 -7
1535 -15 59 -36 64 -274 65 -223 1 -261 -5 -279 -43 -5 -10 -9 -701 -9 -1537
l-2 -1520 -364 0 -364 0 -2 1900 c0 1045 -2 1908 -2 1917 -1 9 -11 29 -24 44
l-23 27 -217 1 c-119 1 -229 -2 -244 -6 -65 -17 -60 131 -60 -1970 l0 -1907
76 -4 c42 -1 -122 -3 -364 -4 l-441 -2 1 1052 c0 579 -1 1060 -4 1070 -8 40
-44 45 -292 43 -209 -1 -239 -3 -256 -18 -19 -17 -19 -47 -19 -1083 l1 -1065
-170 1 c-305 0 -325 -1 -325 -11 0 -7 1375 -10 4105 -10 2730 0 4105 3 4105
10 0 6 -19 10 -42 10 -24 0 -163 1 -310 1 l-268 0 0 75 c0 57 -3 74 -14 74
-18 0 -22 22 -16 85 4 35 9 50 20 50 13 0 15 38 14 285 -2 372 -12 674 -29
920 -3 41 -8 107 -10 145 -5 74 -10 129 -20 229 -6 61 -10 86 -21 149 -3 17
-7 49 -9 69 -2 21 -6 42 -10 48 -3 5 -8 36 -10 69 -2 33 -22 114 -44 181 -34
101 -40 132 -36 174 6 56 13 115 30 251 3 22 8 60 10 85 3 25 8 59 12 75 3 17
7 41 9 55 4 38 14 82 25 117 5 17 12 44 15 60 2 15 7 39 9 53 20 101 24 120
29 161 3 19 9 52 13 74 5 22 8 54 7 70 -2 17 -5 68 -7 115 -3 47 -8 95 -11
108 -7 31 -150 305 -187 358 -22 32 -25 44 -16 53 7 7 13 28 13 49 1 20 7 38
13 40 6 2 11 10 11 18 0 8 5 14 11 14 5 0 21 25 35 55 103 224 -93 454 -331
390 -45 -12 -113 -62 -146 -107 -81 -113 -64 -273 40 -367 35 -32 118 -70 160
-73 52 -4 98 -54 121 -135 12 -37 25 -76 30 -85 6 -10 10 -26 10 -36 0 -10 3
-22 7 -26 4 -3 8 -14 9 -23 2 -10 7 -26 13 -38 65 -136 73 -184 39 -219 -14
-14 -98 -234 -98 -257 0 -18 -21 -8 -32 16 -6 14 -18 25 -27 26 -127 6 -262 1
-276 -11 -15 -12 -23 -10 -63 12 -26 14 -58 29 -71 33 -35 11 -66 42 -116 115
-48 71 -70 97 -104 120 -11 8 -21 20 -21 27 0 7 -4 13 -8 13 -12 0 -49 76 -62
128 -11 44 -57 136 -103 210 -27 41 -31 56 -41 131 -6 40 -35 74 -68 76 -24 2
-24 0 -27 116 -1 21 -11 40 -30 58 l-30 28 -217 0 c-119 0 -224 -2 -233 -4 -9
-2 -26 -19 -38 -37 l-21 -33 -1 -2201 0 -2200 126 -1 c70 -1 129 -3 131 -6 3
-3 -217 -4 -489 -2 l-494 2 -1 2485 c0 1367 -4 2501 -7 2521 -4 20 -18 46 -31
58 -23 22 -33 23 -193 24 -92 1 -188 1 -213 -1z m1786 -1119 c14 -59 27 -115
29 -123 4 -19 42 -102 93 -208 26 -52 39 -91 36 -107 -3 -17 12 -56 49 -122
76 -142 139 -274 143 -303 2 -14 6 -54 9 -90 2 -36 7 -99 10 -140 3 -41 8
-106 10 -144 2 -39 7 -102 11 -140 3 -39 7 -96 9 -126 5 -105 17 -235 22 -243
3 -5 11 -6 18 -3 8 3 14 -6 17 -25 3 -16 3 -31 1 -33 -6 -6 -16 -297 -16 -476
0 -183 10 -337 28 -455 2 -16 7 -59 11 -95 7 -75 7 -70 38 -290 6 -39 16 -120
22 -165 2 -16 6 -39 8 -50 3 -11 8 -42 11 -70 3 -27 8 -59 10 -71 3 -12 7 -39
10 -60 4 -21 11 -68 17 -104 6 -36 10 -73 10 -83 -1 -10 9 -23 22 -28 16 -7
23 -20 24 -39 1 -27 -1 -27 -57 -28 -89 0 -150 -41 -168 -112 l-9 -35 -230 0
-229 0 -1 2053 c0 1130 3 2047 8 2039 4 -8 20 -64 34 -124z m860 -2303 c2 -14
7 -33 10 -42 5 -18 10 -39 18 -89 3 -19 8 -45 11 -59 3 -14 7 -38 10 -55 2
-16 11 -68 19 -115 19 -109 32 -190 41 -255 2 -16 6 -41 9 -55 2 -14 7 -45 10
-70 4 -25 8 -56 10 -70 5 -28 14 -88 21 -137 3 -18 7 -49 10 -68 3 -19 7 -52
10 -72 3 -21 7 -51 10 -68 3 -16 7 -48 10 -70 19 -138 28 -175 41 -175 8 0 15
-11 15 -27 1 -16 3 -42 4 -59 l3 -31 -61 -2 c-95 -3 -160 -52 -171 -130 -3
-19 -51 -27 -71 -11 -9 7 -11 20 -6 38 12 45 -2 118 -20 107 -5 -4 -9 12 -9
34 0 21 4 41 9 43 5 2 11 261 15 588 6 605 12 827 26 930 2 14 14 -23 26 -80z
m-5159 -1666 c-3 -3 -12 -4 -19 -1 -8 3 -5 6 6 6 11 1 17 -2 13 -5z m2700 0
c-3 -3 -12 -4 -19 -1 -8 3 -5 6 6 6 11 1 17 -2 13 -5z m1280 0 c-3 -3 -12 -4
-19 -1 -8 3 -5 6 6 6 11 1 17 -2 13 -5z"/>
<path d="M7010 4713 c-31 -12 -98 -87 -94 -105 2 -10 6 -28 9 -40 2 -12 -7
-46 -22 -76 -44 -91 -26 -176 58 -261 90 -92 217 -71 310 53 31 41 36 55 34
94 -6 121 -34 185 -104 237 -28 20 -59 46 -69 58 -34 41 -79 56 -122 40z"/>
</g>
</svg>
